<mxfile host="app.diagrams.net" modified="2022-05-25T08:54:44.720Z" agent="5.0 (Windows NT 6.1; Win64; x64) AppleWebKit/537.36 (KHTML, like Gecko) Chrome/101.0.4951.67 Safari/537.36" etag="KHxXs0yzsIm-WWPQXtkv" version="18.0.7" type="github">
  <diagram id="prtHgNgQTEPvFCAcTncT" name="Page-1">
    <mxGraphModel dx="1422" dy="794" grid="1" gridSize="10" guides="1" tooltips="1" connect="1" arrows="1" fold="1" page="1" pageScale="1" pageWidth="827" pageHeight="1169" math="0" shadow="0">
      <root>
        <mxCell id="0" />
        <mxCell id="1" parent="0" />
        <mxCell id="8NRRY1c7vRtEicuSkaQX-30" style="edgeStyle=orthogonalEdgeStyle;rounded=0;orthogonalLoop=1;jettySize=auto;html=1;entryX=0;entryY=0.5;entryDx=0;entryDy=0;fontColor=#FFFFFF;" edge="1" parent="1" source="8NRRY1c7vRtEicuSkaQX-24" target="8NRRY1c7vRtEicuSkaQX-26">
          <mxGeometry relative="1" as="geometry" />
        </mxCell>
        <mxCell id="8NRRY1c7vRtEicuSkaQX-34" style="edgeStyle=orthogonalEdgeStyle;rounded=0;orthogonalLoop=1;jettySize=auto;html=1;fontColor=#FFFFFF;" edge="1" parent="1" source="8NRRY1c7vRtEicuSkaQX-24" target="8NRRY1c7vRtEicuSkaQX-25">
          <mxGeometry relative="1" as="geometry" />
        </mxCell>
        <mxCell id="8NRRY1c7vRtEicuSkaQX-35" style="edgeStyle=orthogonalEdgeStyle;rounded=0;orthogonalLoop=1;jettySize=auto;html=1;entryX=0;entryY=0.5;entryDx=0;entryDy=0;fontColor=#FFFFFF;" edge="1" parent="1" source="8NRRY1c7vRtEicuSkaQX-24" target="8NRRY1c7vRtEicuSkaQX-29">
          <mxGeometry relative="1" as="geometry" />
        </mxCell>
        <mxCell id="8NRRY1c7vRtEicuSkaQX-37" style="edgeStyle=orthogonalEdgeStyle;rounded=0;orthogonalLoop=1;jettySize=auto;html=1;entryX=0;entryY=0.5;entryDx=0;entryDy=0;fontColor=#FFFFFF;" edge="1" parent="1" source="8NRRY1c7vRtEicuSkaQX-24" target="8NRRY1c7vRtEicuSkaQX-28">
          <mxGeometry relative="1" as="geometry" />
        </mxCell>
        <mxCell id="8NRRY1c7vRtEicuSkaQX-38" style="edgeStyle=orthogonalEdgeStyle;rounded=0;orthogonalLoop=1;jettySize=auto;html=1;entryX=0;entryY=0.5;entryDx=0;entryDy=0;fontColor=#FFFFFF;" edge="1" parent="1" source="8NRRY1c7vRtEicuSkaQX-24" target="8NRRY1c7vRtEicuSkaQX-39">
          <mxGeometry relative="1" as="geometry">
            <mxPoint x="420" y="570" as="targetPoint" />
          </mxGeometry>
        </mxCell>
        <mxCell id="8NRRY1c7vRtEicuSkaQX-24" value="子域名" style="shape=process;whiteSpace=wrap;html=1;backgroundOutline=1;labelBackgroundColor=#1952B5;fontColor=#FFFFFF;strokeColor=#A1A1A1;fillColor=#1952B5;" vertex="1" parent="1">
          <mxGeometry x="140" y="350" width="120" height="60" as="geometry" />
        </mxCell>
        <mxCell id="8NRRY1c7vRtEicuSkaQX-25" value="bing" style="rounded=0;whiteSpace=wrap;html=1;labelBackgroundColor=#00E373;fontColor=#00190D;strokeColor=#A1A1A1;fillColor=#00E373;" vertex="1" parent="1">
          <mxGeometry x="420" y="290" width="120" height="60" as="geometry" />
        </mxCell>
        <mxCell id="8NRRY1c7vRtEicuSkaQX-26" value="百度" style="rounded=0;whiteSpace=wrap;html=1;labelBackgroundColor=#00E373;fontColor=#00190D;strokeColor=#A1A1A1;fillColor=#00E373;" vertex="1" parent="1">
          <mxGeometry x="420" y="210" width="120" height="60" as="geometry" />
        </mxCell>
        <mxCell id="8NRRY1c7vRtEicuSkaQX-28" value="Yandex" style="rounded=0;whiteSpace=wrap;html=1;labelBackgroundColor=#00E373;fontColor=#00190D;strokeColor=#A1A1A1;fillColor=#00E373;" vertex="1" parent="1">
          <mxGeometry x="420" y="460" width="120" height="60" as="geometry" />
        </mxCell>
        <mxCell id="8NRRY1c7vRtEicuSkaQX-29" value="github" style="rounded=0;whiteSpace=wrap;html=1;labelBackgroundColor=#00E373;fontColor=#00190D;strokeColor=#A1A1A1;fillColor=#00E373;" vertex="1" parent="1">
          <mxGeometry x="420" y="370" width="120" height="60" as="geometry" />
        </mxCell>
        <mxCell id="8NRRY1c7vRtEicuSkaQX-39" value="..." style="rounded=0;whiteSpace=wrap;html=1;labelBackgroundColor=#00E373;fontColor=#00190D;strokeColor=#A1A1A1;fillColor=#00E373;" vertex="1" parent="1">
          <mxGeometry x="420" y="540" width="120" height="60" as="geometry" />
        </mxCell>
      </root>
    </mxGraphModel>
  </diagram>
</mxfile>
